<svg width="194" height="16" viewBox="0 0 194 16" fill="none" xmlns="http://www.w3.org/2000/svg">
<path d="M4.23438 7.90909C4.23438 7.36553 4.36695 6.87003 4.6321 6.42259C4.89725 5.97514 5.25355 5.61884 5.70099 5.35369C6.14844 5.08854 6.64394 4.95597 7.1875 4.95597C7.65814 4.95597 8.09233 5.05705 8.49006 5.25923C8.8911 5.46141 9.22254 5.73816 9.48438 6.08949C9.74621 6.4375 9.90862 6.83191 9.97159 7.27273H8.76847C8.70218 6.93134 8.51823 6.65294 8.21662 6.4375C7.91501 6.21875 7.57197 6.10938 7.1875 6.10938C6.85606 6.10938 6.55445 6.19058 6.28267 6.35298C6.01089 6.51539 5.7938 6.73248 5.63139 7.00426C5.46899 7.27604 5.38778 7.57765 5.38778 7.90909C5.38778 8.24053 5.46899 8.54214 5.63139 8.81392C5.7938 9.0857 6.01089 9.30279 6.28267 9.4652C6.55445 9.6276 6.85606 9.70881 7.1875 9.70881C7.57197 9.70881 7.89678 9.60109 8.16193 9.38565C8.4304 9.1669 8.59943 8.88684 8.66903 8.54545H9.87216C9.80919 8.98627 9.65507 9.38234 9.4098 9.73366C9.16454 10.0817 8.84967 10.3568 8.4652 10.5589C8.08404 10.7611 7.65814 10.8622 7.1875 10.8622C6.64394 10.8622 6.14844 10.7296 5.70099 10.4645C5.25355 10.1993 4.89725 9.84304 4.6321 9.3956C4.36695 8.94815 4.23438 8.45265 4.23438 7.90909ZM7.13778 13.1591C6.41525 13.1591 5.7358 13.0232 5.09943 12.7514C4.46638 12.4796 3.90791 12.1035 3.42401 11.6229C2.94342 11.139 2.56558 10.5805 2.29048 9.94744C2.0187 9.31439 1.88447 8.63494 1.88778 7.90909C1.8911 7.18324 2.02865 6.50379 2.30043 5.87074C2.57552 5.23769 2.95336 4.68087 3.43395 4.20028C3.91454 3.71638 4.47135 3.33854 5.1044 3.06676C5.73745 2.79498 6.41525 2.65909 7.13778 2.65909C7.86364 2.65909 8.54309 2.79498 9.17614 3.06676C9.8125 3.33854 10.3693 3.71638 10.8466 4.20028C11.3272 4.68087 11.7034 5.23769 11.9751 5.87074C12.2469 6.50379 12.3845 7.18324 12.3878 7.90909C12.3911 8.63494 12.2569 9.31439 11.9851 9.94744C11.7133 10.5805 11.3371 11.139 10.8565 11.6229C10.3759 12.1035 9.81747 12.4796 9.18111 12.7514C8.54474 13.0232 7.86364 13.1591 7.13778 13.1591ZM7.13778 12.0057C7.70455 12.0057 8.23651 11.8996 8.73367 11.6875C9.23082 11.4754 9.66667 11.1821 10.0412 10.8075C10.4157 10.433 10.709 9.99882 10.9212 9.50497C11.1333 9.00781 11.2377 8.47751 11.2344 7.91406C11.2311 7.3473 11.1233 6.81534 10.9112 6.31818C10.6991 5.82102 10.4058 5.38518 10.0312 5.01065C9.65672 4.63613 9.22254 4.3428 8.72869 4.13068C8.23485 3.91856 7.70455 3.8125 7.13778 3.8125C6.57434 3.8125 6.04569 3.91856 5.55185 4.13068C5.058 4.3428 4.62382 4.63778 4.24929 5.01562C3.87476 5.39015 3.57978 5.82599 3.36435 6.32315C3.15223 6.817 3.04451 7.3473 3.04119 7.91406C3.03788 8.47419 3.14228 9.00284 3.3544 9.5C3.56652 9.99384 3.85985 10.428 4.23438 10.8026C4.61222 11.1771 5.04806 11.4721 5.5419 11.6875C6.03906 11.8996 6.57102 12.0057 7.13778 12.0057ZM18.5364 13V12.1051L21.8972 8.42614C22.2916 7.99526 22.6164 7.62074 22.8716 7.30256C23.1268 6.98106 23.3158 6.67945 23.4384 6.39773C23.5643 6.11269 23.6273 5.81439 23.6273 5.50284C23.6273 5.14489 23.5411 4.83499 23.3688 4.57315C23.1998 4.31132 22.9677 4.10914 22.6728 3.96662C22.3778 3.8241 22.0463 3.75284 21.6784 3.75284C21.2873 3.75284 20.946 3.83404 20.6543 3.99645C20.3659 4.15554 20.1422 4.37926 19.9831 4.66761C19.8274 4.95597 19.7495 5.29403 19.7495 5.68182H18.5762C18.5762 5.08523 18.7137 4.56155 18.9888 4.1108C19.2639 3.66004 19.6384 3.30871 20.1124 3.05682C20.5897 2.80492 21.1249 2.67898 21.7182 2.67898C22.3148 2.67898 22.8435 2.80492 23.3042 3.05682C23.7649 3.30871 24.1261 3.64844 24.388 4.07599C24.6498 4.50355 24.7807 4.97917 24.7807 5.50284C24.7807 5.87737 24.7128 6.24361 24.5769 6.60156C24.4443 6.9562 24.2123 7.35227 23.8809 7.78977C23.5527 8.22396 23.097 8.75426 22.5137 9.38068L20.2267 11.8267V11.9062H24.9597V13H18.5364ZM30.334 13.1392C29.5849 13.1392 28.9469 12.9354 28.4199 12.5277C27.8929 12.1167 27.4902 11.5218 27.2118 10.7429C26.9334 9.9607 26.7942 9.0161 26.7942 7.90909C26.7942 6.80871 26.9334 5.86908 27.2118 5.0902C27.4935 4.308 27.8979 3.71141 28.4249 3.30043C28.9552 2.88613 29.5916 2.67898 30.334 2.67898C31.0764 2.67898 31.7111 2.88613 32.2381 3.30043C32.7684 3.71141 33.1728 4.308 33.4512 5.0902C33.7329 5.86908 33.8738 6.80871 33.8738 7.90909C33.8738 9.0161 33.7346 9.9607 33.4561 10.7429C33.1777 11.5218 32.775 12.1167 32.248 12.5277C31.7211 12.9354 31.083 13.1392 30.334 13.1392ZM30.334 12.0455C31.0764 12.0455 31.6531 11.6875 32.0641 10.9716C32.4751 10.2557 32.6806 9.23485 32.6806 7.90909C32.6806 7.02746 32.5861 6.27675 32.3972 5.65696C32.2116 5.03717 31.9431 4.56487 31.5918 4.24006C31.2438 3.91525 30.8245 3.75284 30.334 3.75284C29.5982 3.75284 29.0231 4.11577 28.6088 4.84162C28.1945 5.56416 27.9874 6.58665 27.9874 7.90909C27.9874 8.79072 28.0802 9.53977 28.2658 10.1562C28.4514 10.7727 28.7182 11.2417 29.0662 11.5632C29.4176 11.8847 29.8401 12.0455 30.334 12.0455ZM35.763 13V12.1051L39.1238 8.42614C39.5182 7.99526 39.843 7.62074 40.0982 7.30256C40.3534 6.98106 40.5423 6.67945 40.665 6.39773C40.7909 6.11269 40.8539 5.81439 40.8539 5.50284C40.8539 5.14489 40.7677 4.83499 40.5953 4.57315C40.4263 4.31132 40.1943 4.10914 39.8993 3.96662C39.6043 3.8241 39.2729 3.75284 38.905 3.75284C38.5139 3.75284 38.1725 3.83404 37.8809 3.99645C37.5925 4.15554 37.3688 4.37926 37.2097 4.66761C37.0539 4.95597 36.976 5.29403 36.976 5.68182H35.8027C35.8027 5.08523 35.9403 4.56155 36.2154 4.1108C36.4905 3.66004 36.865 3.30871 37.339 3.05682C37.8162 2.80492 38.3515 2.67898 38.9448 2.67898C39.5414 2.67898 40.07 2.80492 40.5307 3.05682C40.9914 3.30871 41.3527 3.64844 41.6145 4.07599C41.8764 4.50355 42.0073 4.97917 42.0073 5.50284C42.0073 5.87737 41.9393 6.24361 41.8034 6.60156C41.6709 6.9562 41.4389 7.35227 41.1074 7.78977C40.7793 8.22396 40.3236 8.75426 39.7402 9.38068L37.4533 11.8267V11.9062H42.1863V13H35.763ZM43.7821 10.9119V9.89773L48.2566 2.81818H48.9924V4.3892H48.4952L45.1145 9.73864V9.81818H51.1401V10.9119H43.7821ZM48.5748 13V10.6037V10.1314V2.81818H49.748V13H48.5748ZM53.3997 13.0795C53.1544 13.0795 52.944 12.9917 52.7683 12.8161C52.5926 12.6404 52.5048 12.4299 52.5048 12.1847C52.5048 11.9394 52.5926 11.7289 52.7683 11.5533C52.944 11.3776 53.1544 11.2898 53.3997 11.2898C53.6449 11.2898 53.8554 11.3776 54.0311 11.5533C54.2067 11.7289 54.2946 11.9394 54.2946 12.1847C54.2946 12.3471 54.2531 12.4962 54.1703 12.6321C54.0907 12.768 53.983 12.8774 53.8471 12.9602C53.7145 13.0398 53.5654 13.0795 53.3997 13.0795ZM61.7296 2.81818V13H60.4966V2.81818H61.7296ZM65.2159 8.40625V13H64.0426V5.36364H65.1761V6.55682H65.2756C65.4545 6.16903 65.7263 5.85748 66.0909 5.62216C66.4555 5.38352 66.9261 5.2642 67.5028 5.2642C68.0199 5.2642 68.4723 5.37027 68.8601 5.58239C69.2479 5.79119 69.5495 6.10938 69.7649 6.53693C69.9804 6.96117 70.0881 7.49811 70.0881 8.14773V13H68.9148V8.22727C68.9148 7.62737 68.759 7.16004 68.4474 6.82528C68.1359 6.48722 67.7083 6.31818 67.1648 6.31818C66.7902 6.31818 66.4555 6.39938 66.1605 6.56179C65.8688 6.72419 65.6385 6.96117 65.4695 7.27273C65.3004 7.58428 65.2159 7.96212 65.2159 8.40625ZM75.5531 5.36364V6.35795H71.5957V5.36364H75.5531ZM72.7491 3.53409H73.9224V10.8125C73.9224 11.1439 73.9705 11.3925 74.0666 11.5582C74.166 11.7206 74.292 11.83 74.4444 11.8864C74.6002 11.9394 74.7643 11.9659 74.9366 11.9659C75.0659 11.9659 75.1719 11.9593 75.2548 11.946C75.3377 11.9295 75.4039 11.9162 75.4537 11.9062L75.6923 12.9602C75.6127 12.9901 75.5017 13.0199 75.3592 13.0497C75.2167 13.0829 75.036 13.0994 74.8173 13.0994C74.4859 13.0994 74.161 13.0282 73.8429 12.8857C73.528 12.7431 73.2662 12.526 73.0574 12.2344C72.8519 11.9427 72.7491 11.5748 72.7491 11.1307V3.53409ZM77.318 13V5.36364H78.4515V6.51705H78.5311C78.6703 6.1392 78.9222 5.83262 79.2868 5.5973C79.6513 5.36198 80.0623 5.24432 80.5197 5.24432C80.6059 5.24432 80.7136 5.24597 80.8429 5.24929C80.9721 5.2526 81.0699 5.25758 81.1362 5.2642V6.45739C81.0964 6.44744 81.0053 6.43253 80.8627 6.41264C80.7235 6.38944 80.5761 6.37784 80.4203 6.37784C80.0491 6.37784 79.7176 6.45573 79.426 6.61151C79.1376 6.76397 78.9089 6.97609 78.7399 7.24787C78.5742 7.51634 78.4913 7.82292 78.4913 8.16761V13H77.318ZM85.3968 13.1591C84.7074 13.1591 84.1026 12.995 83.5822 12.6669C83.0652 12.3388 82.6608 11.8797 82.3691 11.2898C82.0808 10.6998 81.9366 10.0104 81.9366 9.22159C81.9366 8.42614 82.0808 7.73177 82.3691 7.13849C82.6608 6.54522 83.0652 6.08452 83.5822 5.75639C84.1026 5.42827 84.7074 5.2642 85.3968 5.2642C86.0862 5.2642 86.6895 5.42827 87.2065 5.75639C87.7269 6.08452 88.1312 6.54522 88.4196 7.13849C88.7112 7.73177 88.8571 8.42614 88.8571 9.22159C88.8571 10.0104 88.7112 10.6998 88.4196 11.2898C88.1312 11.8797 87.7269 12.3388 87.2065 12.6669C86.6895 12.995 86.0862 13.1591 85.3968 13.1591ZM85.3968 12.1051C85.9205 12.1051 86.3514 11.9709 86.6895 11.7024C87.0275 11.4339 87.2778 11.081 87.4402 10.6435C87.6026 10.206 87.6838 9.73201 87.6838 9.22159C87.6838 8.71117 87.6026 8.23556 87.4402 7.79474C87.2778 7.35393 87.0275 6.99763 86.6895 6.72585C86.3514 6.45407 85.9205 6.31818 85.3968 6.31818C84.8732 6.31818 84.4423 6.45407 84.1042 6.72585C83.7662 6.99763 83.5159 7.35393 83.3535 7.79474C83.1911 8.23556 83.1099 8.71117 83.1099 9.22159C83.1099 9.73201 83.1911 10.206 83.3535 10.6435C83.5159 11.081 83.7662 11.4339 84.1042 11.7024C84.4423 11.9709 84.8732 12.1051 85.3968 12.1051ZM93.5316 13.1591C92.8952 13.1591 92.3335 12.9983 91.8462 12.6768C91.359 12.352 90.9779 11.8946 90.7028 11.3047C90.4277 10.7114 90.2901 10.0104 90.2901 9.2017C90.2901 8.39962 90.4277 7.7036 90.7028 7.11364C90.9779 6.52367 91.3607 6.06794 91.8512 5.74645C92.3417 5.42495 92.9085 5.2642 93.5515 5.2642C94.0487 5.2642 94.4414 5.34706 94.7298 5.51278C95.0214 5.67519 95.2435 5.8608 95.396 6.0696C95.5517 6.27509 95.6727 6.44413 95.7589 6.5767H95.8583V2.81818H97.0316V13H95.8981V11.8267H95.7589C95.6727 11.9659 95.5501 12.1416 95.391 12.3537C95.2319 12.5625 95.0049 12.7498 94.7099 12.9155C94.4149 13.0779 94.0221 13.1591 93.5316 13.1591ZM93.6907 12.1051C94.1613 12.1051 94.5591 11.9825 94.8839 11.7372C95.2087 11.4886 95.4556 11.1456 95.6246 10.7081C95.7937 10.2673 95.8782 9.75852 95.8782 9.18182C95.8782 8.61174 95.7953 8.11293 95.6296 7.68537C95.4639 7.2545 95.2186 6.91974 94.8938 6.68111C94.569 6.43916 94.168 6.31818 93.6907 6.31818C93.1935 6.31818 92.7792 6.44579 92.4478 6.70099C92.1197 6.95289 91.8728 7.29593 91.707 7.73011C91.5446 8.16098 91.4634 8.64489 91.4634 9.18182C91.4634 9.72538 91.5463 10.2192 91.712 10.6634C91.881 11.1042 92.1296 11.4555 92.4577 11.7173C92.7892 11.9759 93.2002 12.1051 93.6907 12.1051ZM104.156 9.87784V5.36364H105.329V13H104.156V11.7074H104.076C103.897 12.0952 103.619 12.425 103.241 12.6967C102.863 12.9652 102.386 13.0994 101.809 13.0994C101.332 13.0994 100.908 12.995 100.537 12.7862C100.165 12.5741 99.8737 12.2559 99.6616 11.8317C99.4495 11.4041 99.3434 10.8655 99.3434 10.2159V5.36364H100.517V10.1364C100.517 10.6932 100.672 11.1373 100.984 11.4688C101.299 11.8002 101.7 11.9659 102.187 11.9659C102.479 11.9659 102.775 11.8913 103.077 11.7422C103.382 11.593 103.637 11.3643 103.843 11.0561C104.051 10.7479 104.156 10.3551 104.156 9.87784ZM110.58 13.1591C109.865 13.1591 109.248 12.9901 108.731 12.652C108.214 12.3139 107.816 11.8482 107.538 11.255C107.259 10.6617 107.12 9.9839 107.12 9.22159C107.12 8.44602 107.263 7.7616 107.548 7.16832C107.836 6.57173 108.237 6.10606 108.751 5.77131C109.268 5.43324 109.871 5.2642 110.561 5.2642C111.097 5.2642 111.581 5.36364 112.012 5.5625C112.443 5.76136 112.796 6.03977 113.071 6.39773C113.346 6.75568 113.517 7.1733 113.583 7.65057H112.41C112.32 7.30256 112.122 6.99432 111.813 6.72585C111.508 6.45407 111.097 6.31818 110.58 6.31818C110.123 6.31818 109.722 6.4375 109.377 6.67614C109.036 6.91146 108.769 7.24455 108.577 7.67543C108.388 8.10298 108.294 8.60511 108.294 9.18182C108.294 9.77178 108.386 10.2855 108.572 10.723C108.761 11.1605 109.026 11.5002 109.367 11.7422C109.712 11.9841 110.116 12.1051 110.58 12.1051C110.885 12.1051 111.162 12.0521 111.411 11.946C111.659 11.84 111.87 11.6875 112.042 11.4886C112.214 11.2898 112.337 11.0511 112.41 10.7727H113.583C113.517 11.2235 113.353 11.6295 113.091 11.9908C112.833 12.3487 112.49 12.6338 112.062 12.8459C111.638 13.0547 111.144 13.1591 110.58 13.1591ZM118.5 13.1591C117.764 13.1591 117.13 12.9967 116.596 12.6719C116.066 12.3438 115.656 11.8864 115.368 11.2997C115.083 10.7098 114.941 10.0237 114.941 9.24148C114.941 8.45928 115.083 7.76989 115.368 7.1733C115.656 6.57339 116.057 6.10606 116.571 5.77131C117.088 5.43324 117.691 5.2642 118.381 5.2642C118.779 5.2642 119.171 5.33049 119.559 5.46307C119.947 5.59564 120.3 5.81108 120.618 6.10938C120.936 6.40436 121.19 6.79545 121.379 7.28267C121.568 7.76989 121.662 8.36979 121.662 9.08239V9.57955H115.776V8.56534H120.469C120.469 8.13447 120.383 7.75 120.21 7.41193C120.041 7.07386 119.799 6.80705 119.485 6.61151C119.173 6.41596 118.805 6.31818 118.381 6.31818C117.914 6.31818 117.509 6.43419 117.168 6.66619C116.83 6.89489 116.57 7.19318 116.387 7.56108C116.205 7.92898 116.114 8.32339 116.114 8.74432V9.42045C116.114 9.99716 116.213 10.486 116.412 10.8871C116.614 11.2848 116.894 11.5881 117.252 11.7969C117.61 12.0024 118.026 12.1051 118.5 12.1051C118.808 12.1051 119.087 12.062 119.335 11.9759C119.587 11.8864 119.804 11.7538 119.987 11.5781C120.169 11.3991 120.31 11.1771 120.409 10.9119L121.543 11.2301C121.423 11.6146 121.223 11.9527 120.941 12.2443C120.66 12.5327 120.311 12.758 119.897 12.9205C119.483 13.0795 119.017 13.1591 118.5 13.1591ZM130.705 5.36364V6.35795H126.748V5.36364H130.705ZM127.901 3.53409H129.075V10.8125C129.075 11.1439 129.123 11.3925 129.219 11.5582C129.318 11.7206 129.444 11.83 129.597 11.8864C129.753 11.9394 129.917 11.9659 130.089 11.9659C130.218 11.9659 130.324 11.9593 130.407 11.946C130.49 11.9295 130.556 11.9162 130.606 11.9062L130.845 12.9602C130.765 12.9901 130.654 13.0199 130.512 13.0497C130.369 13.0829 130.188 13.0994 129.97 13.0994C129.638 13.0994 129.313 13.0282 128.995 12.8857C128.68 12.7431 128.419 12.526 128.21 12.2344C128.004 11.9427 127.901 11.5748 127.901 11.1307V3.53409ZM137.283 9.87784V5.36364H138.456V13H137.283V11.7074H137.203C137.024 12.0952 136.746 12.425 136.368 12.6967C135.99 12.9652 135.513 13.0994 134.936 13.0994C134.459 13.0994 134.035 12.995 133.664 12.7862C133.292 12.5741 133.001 12.2559 132.789 11.8317C132.576 11.4041 132.47 10.8655 132.47 10.2159V5.36364H133.644V10.1364C133.644 10.6932 133.799 11.1373 134.111 11.4688C134.426 11.8002 134.827 11.9659 135.314 11.9659C135.606 11.9659 135.902 11.8913 136.204 11.7422C136.509 11.593 136.764 11.3643 136.97 11.0561C137.178 10.7479 137.283 10.3551 137.283 9.87784ZM145.716 8.40625V13H144.543V5.36364H145.676V6.55682H145.776C145.955 6.16903 146.226 5.85748 146.591 5.62216C146.955 5.38352 147.426 5.2642 148.003 5.2642C148.52 5.2642 148.972 5.37027 149.36 5.58239C149.748 5.79119 150.049 6.10938 150.265 6.53693C150.48 6.96117 150.588 7.49811 150.588 8.14773V13H149.415V8.22727C149.415 7.62737 149.259 7.16004 148.947 6.82528C148.636 6.48722 148.208 6.31818 147.665 6.31818C147.29 6.31818 146.955 6.39938 146.661 6.56179C146.369 6.72419 146.138 6.96117 145.969 7.27273C145.8 7.58428 145.716 7.96212 145.716 8.40625ZM155.834 13.1591C155.145 13.1591 154.54 12.995 154.02 12.6669C153.503 12.3388 153.098 11.8797 152.807 11.2898C152.518 10.6998 152.374 10.0104 152.374 9.22159C152.374 8.42614 152.518 7.73177 152.807 7.13849C153.098 6.54522 153.503 6.08452 154.02 5.75639C154.54 5.42827 155.145 5.2642 155.834 5.2642C156.524 5.2642 157.127 5.42827 157.644 5.75639C158.164 6.08452 158.569 6.54522 158.857 7.13849C159.149 7.73177 159.295 8.42614 159.295 9.22159C159.295 10.0104 159.149 10.6998 158.857 11.2898C158.569 11.8797 158.164 12.3388 157.644 12.6669C157.127 12.995 156.524 13.1591 155.834 13.1591ZM155.834 12.1051C156.358 12.1051 156.789 11.9709 157.127 11.7024C157.465 11.4339 157.715 11.081 157.878 10.6435C158.04 10.206 158.121 9.73201 158.121 9.22159C158.121 8.71117 158.04 8.23556 157.878 7.79474C157.715 7.35393 157.465 6.99763 157.127 6.72585C156.789 6.45407 156.358 6.31818 155.834 6.31818C155.311 6.31818 154.88 6.45407 154.542 6.72585C154.204 6.99763 153.953 7.35393 153.791 7.79474C153.629 8.23556 153.547 8.71117 153.547 9.22159C153.547 9.73201 153.629 10.206 153.791 10.6435C153.953 11.081 154.204 11.4339 154.542 11.7024C154.88 11.9709 155.311 12.1051 155.834 12.1051ZM161.086 13V5.36364H162.219V6.55682H162.319C162.478 6.14915 162.734 5.83262 163.089 5.60724C163.444 5.37855 163.87 5.2642 164.367 5.2642C164.871 5.2642 165.29 5.37855 165.625 5.60724C165.963 5.83262 166.226 6.14915 166.415 6.55682H166.495C166.69 6.16241 166.984 5.84919 167.375 5.61719C167.766 5.38187 168.235 5.2642 168.782 5.2642C169.464 5.2642 170.023 5.47798 170.457 5.90554C170.891 6.32978 171.108 6.991 171.108 7.8892V13H169.935V7.8892C169.935 7.32576 169.781 6.92306 169.473 6.68111C169.164 6.43916 168.801 6.31818 168.384 6.31818C167.847 6.31818 167.431 6.48059 167.136 6.8054C166.841 7.12689 166.694 7.53456 166.694 8.02841V13H165.5V7.76989C165.5 7.3357 165.359 6.98603 165.078 6.72088C164.796 6.45241 164.433 6.31818 163.989 6.31818C163.684 6.31818 163.399 6.39938 163.134 6.56179C162.872 6.72419 162.66 6.94957 162.498 7.23793C162.338 7.52296 162.259 7.85275 162.259 8.22727V13H161.086ZM173.413 13V2.81818H174.586V6.5767H174.685C174.772 6.44413 174.891 6.27509 175.043 6.0696C175.199 5.8608 175.421 5.67519 175.71 5.51278C176.001 5.34706 176.396 5.2642 176.893 5.2642C177.536 5.2642 178.103 5.42495 178.593 5.74645C179.084 6.06794 179.466 6.52367 179.741 7.11364C180.017 7.7036 180.154 8.39962 180.154 9.2017C180.154 10.0104 180.017 10.7114 179.741 11.3047C179.466 11.8946 179.085 12.352 178.598 12.6768C178.111 12.9983 177.549 13.1591 176.913 13.1591C176.422 13.1591 176.029 13.0779 175.734 12.9155C175.439 12.7498 175.212 12.5625 175.053 12.3537C174.894 12.1416 174.772 11.9659 174.685 11.8267H174.546V13H173.413ZM174.566 9.18182C174.566 9.75852 174.651 10.2673 174.82 10.7081C174.989 11.1456 175.236 11.4886 175.56 11.7372C175.885 11.9825 176.283 12.1051 176.754 12.1051C177.244 12.1051 177.653 11.9759 177.982 11.7173C178.313 11.4555 178.562 11.1042 178.727 10.6634C178.896 10.2192 178.981 9.72538 178.981 9.18182C178.981 8.64489 178.898 8.16098 178.732 7.73011C178.57 7.29593 178.323 6.95289 177.991 6.70099C177.663 6.44579 177.251 6.31818 176.754 6.31818C176.276 6.31818 175.875 6.43916 175.55 6.68111C175.226 6.91974 174.98 7.2545 174.815 7.68537C174.649 8.11293 174.566 8.61174 174.566 9.18182ZM181.949 13V5.36364H183.082V6.51705H183.162C183.301 6.1392 183.553 5.83262 183.918 5.5973C184.282 5.36198 184.693 5.24432 185.151 5.24432C185.237 5.24432 185.344 5.24597 185.474 5.24929C185.603 5.2526 185.701 5.25758 185.767 5.2642V6.45739C185.727 6.44744 185.636 6.43253 185.494 6.41264C185.354 6.38944 185.207 6.37784 185.051 6.37784C184.68 6.37784 184.348 6.45573 184.057 6.61151C183.768 6.76397 183.54 6.97609 183.371 7.24787C183.205 7.51634 183.122 7.82292 183.122 8.16761V13H181.949ZM190.127 13.1591C189.391 13.1591 188.757 12.9967 188.223 12.6719C187.693 12.3438 187.283 11.8864 186.995 11.2997C186.71 10.7098 186.567 10.0237 186.567 9.24148C186.567 8.45928 186.71 7.76989 186.995 7.1733C187.283 6.57339 187.684 6.10606 188.198 5.77131C188.715 5.43324 189.318 5.2642 190.008 5.2642C190.406 5.2642 190.798 5.33049 191.186 5.46307C191.574 5.59564 191.927 5.81108 192.245 6.10938C192.563 6.40436 192.817 6.79545 193.006 7.28267C193.195 7.76989 193.289 8.36979 193.289 9.08239V9.57955H187.403V8.56534H192.096C192.096 8.13447 192.01 7.75 191.837 7.41193C191.668 7.07386 191.426 6.80705 191.112 6.61151C190.8 6.41596 190.432 6.31818 190.008 6.31818C189.54 6.31818 189.136 6.43419 188.795 6.66619C188.457 6.89489 188.196 7.19318 188.014 7.56108C187.832 7.92898 187.741 8.32339 187.741 8.74432V9.42045C187.741 9.99716 187.84 10.486 188.039 10.8871C188.241 11.2848 188.521 11.5881 188.879 11.7969C189.237 12.0024 189.653 12.1051 190.127 12.1051C190.435 12.1051 190.714 12.062 190.962 11.9759C191.214 11.8864 191.431 11.7538 191.614 11.5781C191.796 11.3991 191.937 11.1771 192.036 10.9119L193.17 11.2301C193.05 11.6146 192.85 11.9527 192.568 12.2443C192.286 12.5327 191.938 12.758 191.524 12.9205C191.11 13.0795 190.644 13.1591 190.127 13.1591Z" fill="white"/>
</svg>
